<?xml version="1.0" encoding="UTF-8"?><svg id="_圖層_1" xmlns="http://www.w3.org/2000/svg" viewBox="0 0 629.2913 119.0551"><defs><style>.cls-1{isolation:isolate;opacity:.09;}.cls-1,.cls-2,.cls-3,.cls-4,.cls-5{stroke-width:0px;}.cls-2{opacity:.4;}.cls-2,.cls-4{fill:#fff;}.cls-3{opacity:.09;}.cls-4{opacity:.26;}.cls-5{fill:#2ec7b8;}</style></defs><path class="cls-5" d="m77.916,61.9151v40.6703s-42.3434-5.0838-41.6999-41.0564c7.7222,0,41.6999.3861,41.6999.3861Z"/><path class="cls-4" d="m77.916,61.9151v40.6703s-42.3434-5.0838-41.6999-41.0564c7.7222,0,41.6999.3861,41.6999.3861Z"/><path class="cls-5" d="m108.8406,81.8097c-7.0502,10.0723-18.7306,16.6773-31.9311,16.6773-21.4824,0-38.96-17.4766-38.96-38.959s17.4775-38.96,38.96-38.96,38.96,17.4775,38.96,38.96c0,2.8958-.3274,5.715-.9296,8.4323l18.4419,8.4923c1.6108-5.3642,2.4877-11.0428,2.4877-16.9246C135.8694,27.0173,109.4202.5681,76.9095.5681S17.9495,27.0173,17.9495,59.528s26.4492,58.959,58.96,58.959c21.1758,0,39.7726-11.2263,50.1713-28.0346l-18.2402-8.6427Z"/><path id="Path_3669" class="cls-1" d="m21.8033,80.5048c4.4406-1.0377,36.5578-8.2435,36.5578-8.2435l-3.3462-3.8787-36.3823.0211s.3725,4.3153,3.1706,12.1011Z"/><polygon id="Rectangle_2453" class="cls-5" points="4.1 53.0637 86.6 53.0637 86.6 68.3638 0 68.3638 4.1 53.0637"/><path class="cls-5" d="m317.2483,46.2637c-2.8999-.8999-6-1.5-9.6-1.5s-6.3.3-8.7001,1.2001c-2.3999.9-4.2,2.1-5.7,3.2999-1.5,1.2001-2.7,2.7001-3.3,4.5-.6,1.5-1.2,3.3-1.2,5.1001h12.4c0-.9.2999-1.7.9-2.4.6-.6,1.2-1.2001,2.1-1.5.6-.3,1.7999-.6,3-.6,1.7999,0,3.2999.6,4.5,1.5,1.2,1.2,1.7999,2.3999,1.7999,4.2v3.6001h-10.2999c-5,0-9,1.2-11.7001,3.5999-2.7,2.4001-4.2,5.7001-4.2,9.6001,0,4.2,1.5,7.5,4.2,9.8999,3,2.4001,6.3,3.6001,10.4,3.7,2.4,0,4.2001-.2999,5.7001-.8999,1.7999-.6001,3-1.5,3.8999-2.4.9-.9,1.5-2.1,2.1001-3h.6v5.4h12.4v-29.5c0-3.6001-.6001-6.6001-2.4-9-1.7999-2.1-4-3.8-6.9-4.8Zm-3.6001,29.1001c0,1.2-.2999,2.1-.8999,3-.9.8999-1.5,1.5-2.7,2.1-.8.5-2.1001.5-3.6001.9-1.5,0-3-.3-4.2-1.2-1.2-.9001-1.8-2.1001-1.8-3.9001,0-1.5.3-2.7,1.5-3.5999,1.2-.9001,2.7-1.5,4.8-1.5h6.8999v4.2Zm-49.8999-30.4c-2.8,0-4.9.3-6.7,1.2001-1.8.8999-3.3,2.0999-4.5,3.2999s-2.1,2.7001-2.4,3.9h-.6c-.3-1.5-1.2-3-2.1-4.2-.9-1.2001-2.4-2.1001-3.9-3-1.5-.9001-3.6-1.2001-5.7-1.2001-2.4,0-4.5.2999-6.3,1.2001-1.8.8999-3,2.0999-3.9,3.2999-.9,1.2001-1.5,2.4-1.8,3.6h-.6v-7.5h-12.9l-.0999,44.3h13.2v-26.1c0-1.7999.3-3.2999.9-4.5.6-1.2001,1.5-2.1,2.4-2.7001.9-.5999,2.1-.8999,3.3-.8999s2.4.3,3.3.8999c.9.3,1.8,1.2001,2.4,2.4001.6.8999.9,2.7.9,4.5v26.3999h12.6v-26.1c0-1.7999.3-3.2999.9-4.5.6-1.2001,1.5-2.1,2.4-2.7001.9-.6,2.1-.8999,3.3-.8999s2.4.2999,3.3.8999c.9.6001,1.8,1.3,2.4,2.4.6,1.2001.9,2.7001.9,4.5v26.4h13.2v-30.7c0-4.3-1.2-7.6001-3.5999-10.3-2.5-2.7-5.8-3.9-10.3-3.9Zm-94.2,28.5001h-.2c0,.1333.0201.2666.0333.3999h.1667v-.3999Zm25.1-14.4c-2.4-1.2001-4.8-2.1-7.8-2.7001l-8.1-1.7999c-2.4-.6-4.5-1.2001-5.7-2.1-1.5-.9-2.1-2.1001-2.1-3.6001,0-1.7999.6-3.2999,2.1-4.5,1.5-1.2,3.6-1.7999,6.3-1.7999,1.8,0,3.6.2999,4.8.9,1.2.6,2.4,1.5,3,2.3999.6.9.9,1.8,1.2,3h12.6c-.3-2.7-.9-5.7-2.7-8.1-1.5-2.7-3.8-4.7999-7.2-6.2999-3.4-1.5-7.3-2.4-12.1-2.4-4.2,0-8.1.6-11.4,2.1-3.3,1.2-6,3.3-7.8,6-1.8,2.6-2.7,5.7-2.7,9.3,0,3,.3,5.7,1.8,7.7999s3.3,3.6,5.4,5.1c2.1,1.5,4.8,2.4,7.8,3l8.1,1.8c2.7.6,4.8,1.5,6.3,2.3999,1.5,1.2001,2.1,2.4001,2.1,4.2001,0,1.2001-.3,2.4-.9,3.2999-.6,1.2001-1.5,1.8-3,2.4001-1.2.5999-3,.8999-5.1.8999-1.5,0-3-.3-4.2-.6s-2.1-.9-3-1.5-1.5-1.2001-2.1-2.1c-.5111-.7667-.791-1.5333-.8667-2.3h-13.2333c0,2.1001.6,4.2001,1.5,6.3.9,1.8,2.4,3.9,4.2,5.4,1.8,1.7999,4.1,2.9,6.9,3.9,2.8.8999,6.4,1.5,10.3,1.5,5.1,0,9.6-.9,12.9-2.4s6-3.6,7.8-6.2999c1.8-2.7001,2.7-6,2.7-9.6001,0-3.3999-.6-6.3999-2.1-8.5-1.5-2.1-3.3-3.8999-5.7-5.1Zm168.4-14.1001c-2.1,0-4.2.2999-5.4,1.2001-1.2.8999-2.3999,1.7999-3.2999,3-.9,1.2-1.5,2.3999-1.7999,3.2999h-.6001v-6.9h-13.3l.1001,44.2h13.5v-24.0999c0-1.8.2999-3.6001.8999-5.1001.9-1.2,1.8-2.3999,3.3-3.3,1.5-.8999,3.3-1.2,5.7-1.2h2.7c.9001,0,1.5,0,2.1001.3v-11.1001c-.3,0-.9-.2999-1.5-.2999h-2.4Zm92.3-5.9c-3.9-2.0999-8.5-3.2999-13.5-3.2999s-9.6,1.2001-13.5,3.2999c-3.9,2.1001-6.6,5.1001-8.7001,9-2.0999,3.9001-3,8.4001-3,13.8v6.3c0,5.2999.9001,9.8999,3,13.7999,2,3.9,4.8,6.9,8.7001,9s8.4,3.2999,13.5,3.2999c1.2001,0,2.7001,0,3.9-.2999s2.3999-.6,3.6-.9l3.6,5.4,13.2001-.1-6.9-10.3c2.4-2.2,4.5-5.2,5.7-8.5,1.5001-3.2999,2.1001-7.2,2.1001-11.3999v-6.3c0-5.3-.9-9.8999-3-13.8-2-3.8999-5.1001-6.8999-8.7001-9Zm-2,29.2c0,2.1001-.2999,3.9001-.6,5.4001s-.9,3-1.5,4.2c-.3-.3-.6001-.9-.9-1.2-.2999-.3-.6-.9001-.9-1.2001h-11.7l5.7,8.5c-.2999,0-.5.2999-.8999.2999h-1.2001c-2.4,0-4.5-.5999-6-1.7999s-3-3-3.9-5.4c-1-2.3999-1.6-5.1-2.1-8.8v-6.8999c0-3,.6-5.7,1.5-8.1001.9-2.0999,2.4-3.8999,4.2001-5.0999,1.7999-1.2001,3.8999-1.8,6.2999-1.8s4.5.6,6.2999,1.8c1.8,1.2,3.3,2.7,4.2001,5.0999.9,2.1001,1.5,4.8,1.5,8.1001v6.8999Zm-54.6,11.8c-2.1001,0-3.5-.3-4.5-1.2-.9-.9001-1.5-2.1001-1.5-4.2001v-18.9h9.6v-9.8999h-9.6v-10.8h-12.6001v11.3999h-6.8999v9.9001h6.8999v21c0,3,.3,5.3999,1.5,7.5,1.2001,2.0999,2.7001,3.2999,5.1001,4.2,2.1.9,5.1,1.2,9,1.2,1.7999,0,3.2999-.2999,4.5-.2999s2.1-.2999,2.7-.2999v-9.6001h-4.2Zm219.7007-18.6478l-6.3652-2.5322c-4.5186-1.7803-7.7354-2.875-7.7354-5.6816,0-2.7383,2.3271-4.2441,6.0918-4.2441,3.9707,0,7.1191,1.3691,10.4736,3.9023l6.0918-7.667c-4.4492-4.4492-10.6787-6.708-16.5654-6.708-10.8145,0-18.4814,6.8447-18.4814,15.4014,0,7.3926,4.9971,11.8418,10.3359,13.9639l6.5029,2.7383c4.3809,1.8477,7.1875,2.8066,7.1875,5.75,0,2.7383-2.1221,4.4492-6.6396,4.4492-4.0391,0-8.7617-2.1221-12.3896-5.2021l-6.9141,8.4189c5.2715,4.8604,12.3896,7.3242,19.0293,7.3242,12.3213,0,19.4404-7.4609,19.4404-15.9492,0-7.1865-3.7646-11.4307-10.0625-13.9639Zm-60.9844-21.9727l-15.8115,50.9277h12.458l2.9434-11.7051h15.0586l2.9434,11.7051h12.8691l-15.8125-50.9277h-14.6484Zm1.917,29.7764l1.0947-4.3125c1.3008-5.0654,2.6699-11.0205,3.9023-16.3594h.2734c1.3691,5.2021,2.6699,11.2939,4.0391,16.3594l1.0947,4.3125h-10.4043Zm-39.2871-29.7764h-12.2529v50.9277h32.0352v-10.2676h-19.7822v-40.6602Z"/><path class="cls-3" d="m18.6326,68.4036s.2816,2.671,1.599,7.4406c2.7659-.4183,34.7108-7.4617,34.7108-7.4617l-36.3098.0211Z"/><polygon id="Rectangle_2453-2" class="cls-2" points="4.1 53.0637 86.6 53.0637 86.6 67.5071 .2023 67.5715 4.1 53.0637"/></svg>