<svg xmlns="http://www.w3.org/2000/svg" xmlns:xlink="http://www.w3.org/1999/xlink" width="630" height="120" viewBox="0 0 630 120">
  <defs>
    <linearGradient id="linear-gradient" x1="1.244" y1="0.658" x2="0.262" gradientUnits="objectBoundingBox">
      <stop offset="0" stop-color="#00c8b8"/>
      <stop offset="0.281" stop-color="#13cfc0"/>
      <stop offset="0.424" stop-color="#1cd3c4"/>
      <stop offset="0.626" stop-color="#2ad8c9"/>
      <stop offset="0.733" stop-color="#33dbcd"/>
      <stop offset="0.807" stop-color="#44e1d4"/>
      <stop offset="0.86" stop-color="#50e5d9"/>
      <stop offset="1" stop-color="#4af5a0"/>
    </linearGradient>
    <linearGradient id="linear-gradient-2" x1="1" y1="0.954" x2="0.516" gradientUnits="objectBoundingBox">
      <stop offset="0" stop-color="#00c8b8"/>
      <stop offset="0.399" stop-color="#29d7c9"/>
      <stop offset="0.714" stop-color="#49e2d6"/>
      <stop offset="1" stop-color="#66ede2"/>
    </linearGradient>
  </defs>
  <g id="華電通logo" transform="translate(-181 -307)">
    <g id="Group_9586" data-name="Group 9586" transform="translate(-19225.156 1897.496)">
      <path id="Path_4871" data-name="Path 4871" d="M111.427,84.511a39.583,39.583,0,1,1,6.207-14.094L136.4,79.06a60.117,60.117,0,1,0-6.412,14.247Z" transform="translate(19405.494 -1592.332)" fill="url(#linear-gradient)"/>
      <path id="Path_4874" data-name="Path 4874" d="M173.456,54.956h89.921v9.022H173.456Zm.991-33.609h87.939v9.319H174.447Zm.3,65.235h87.543V95.8H174.744ZM179.7,71.215h78.222v8.824H179.7Zm1.189-31.924h75.645v8.824H180.891ZM191.2,43.753h9.914V75.478H191.2ZM195.664,15.3h10.41V36.912h-10.41Zm17.052,27.462h10.608V107.9H212.716ZM230.066,15.3h10.41V36.912h-10.41Zm5.551,28.454h9.915V75.478h-9.915Z" transform="translate(19407.914 -1592.094)" fill="#00c8b8"/>
      <path id="Path_4875" data-name="Path 4875" d="M294.5,31.295h86.55V51.321h-9.815V38.532H304.018V51.321H294.5ZM301.043,19H374.21v7.931H301.043Zm2.478,43.721h10.113v35.79H303.522Zm2.776-10.31h22.009V58.36H306.3ZM308.182,42.4h20.027v5.948H308.182V42.4Zm.5,32.717h57.2V81.56h-57.2Zm.1-12.393h63.252V93.853H308.777V86.615H361.52V69.96H308.777V62.722Zm22.9,3.867h10.212V94.944q0,2.677,1.338,3.47t5.9.793h19.828a7.939,7.939,0,0,0,3.867-.743,4.633,4.633,0,0,0,1.883-3.025A38.8,38.8,0,0,0,375.6,88.7a18.211,18.211,0,0,0,4.264,2.131,29.941,29.941,0,0,0,4.659,1.338,30.911,30.911,0,0,1-2.081,9.27,8.6,8.6,0,0,1-4.462,4.611,21.237,21.237,0,0,1-8.228,1.288H348.235a38.145,38.145,0,0,1-10.013-1.041,7.862,7.862,0,0,1-5.106-3.718,16.136,16.136,0,0,1-1.438-7.534V66.589Zm.5-44.415h10.509V59.848H332.174ZM346.747,42.4h20.027v5.948H346.747V42.4Zm0,10.014h22.406V58.36H346.747Z" transform="translate(19409.838 -1592.029)" fill="#00c8b8"/>
      <path id="Path_4876" data-name="Path 4876" d="M433.073,86.336a7.654,7.654,0,0,1,4.56,1.685q2.28,1.686,6.246,4.065a27.991,27.991,0,0,0,11.4,3.768,122.724,122.724,0,0,0,14.674.793q4.163,0,9.072-.149t9.963-.446q5.057-.3,9.816-.694t8.626-.892q-.5,1.389-1.14,3.272t-1.14,3.768a18.116,18.116,0,0,0-.6,3.173q-2.777.2-7.039.4t-9.171.347q-4.907.148-9.766.248t-8.923.1a96.762,96.762,0,0,1-15.714-1.09,34.569,34.569,0,0,1-11.649-4.065,50.332,50.332,0,0,1-5.453-3.619,7.141,7.141,0,0,0-3.966-1.834,6.12,6.12,0,0,0-3.668,1.735,35.188,35.188,0,0,0-4.363,4.461q-2.282,2.726-4.56,5.9l-6.444-9.022A62.947,62.947,0,0,1,424,89.706q5.106-3.37,9.072-3.371Zm4.56-33.312V90.4H427.422V62.839H414.532V53.024ZM416.02,25.265l7.237-6.345q2.975,2.379,6.3,5.254t6.394,5.75a57.418,57.418,0,0,1,4.957,5.156l-7.633,7.237a54.762,54.762,0,0,0-4.71-5.354q-2.924-2.973-6.245-6.047T416.02,25.265Zm30.734,14.871h50.76v7.832H456.767V91.49H446.754Zm.694-21.613h47.884v8.129H447.448Zm4.858,35.79h43.721v7.435H452.306Zm0,13.979h43.721v7.832H452.306Zm2.379-34.9,6.741-5.651q4.462,1.587,9.766,3.718t10.162,4.412q4.856,2.282,8.228,4.164l-7.336,6.444a83.737,83.737,0,0,0-7.734-4.214q-4.759-2.328-9.964-4.709T454.685,33.394ZM469.655,43.7h9.518V91.094h-9.518Zm21.911-25.183h2.379l2.181-.5,6.345,5.056a97.628,97.628,0,0,1-12.1,9.766,103.29,103.29,0,0,1-13.681,8.079,26.967,26.967,0,0,0-2.528-3.222,28.186,28.186,0,0,0-2.826-2.826,60.43,60.43,0,0,0,7.734-4.313q3.866-2.528,7.188-5.2a42.143,42.143,0,0,0,5.3-4.957V18.522Zm.892,21.613H502.67V82.073a13.939,13.939,0,0,1-.793,5.254A5.891,5.891,0,0,1,498.8,90.3a14.164,14.164,0,0,1-5.5,1.288q-3.321.2-7.98.2a32.049,32.049,0,0,0-1.041-4.313,23.836,23.836,0,0,0-1.635-4.115q2.677.1,5.1.1h3.223a1.421,1.421,0,0,0,1.189-.4,1.965,1.965,0,0,0,.3-1.19V40.135Z" transform="translate(19411.727 -1592.046)" fill="#00c8b8"/>
      <path id="Union_2" data-name="Union 2" d="M37.294,15.573H0L4.173,0H88.13V15.573h-8.84V50.4S41.8,45.895,37.294,15.573Z" transform="translate(19406.156 -1537.075)" fill="url(#linear-gradient-2)"/>
      <path id="Path_3669" d="M60.045,73.6,56.639,69.65l-37.024.021a50.4,50.4,0,0,0,4.3,14.938Z" transform="translate(19405.504 -1591.135)" fill="#0cd0c0" style="mix-blend-mode: normal;isolation: isolate"/>
      <path id="Path_4873" data-name="Path 4873" d="M19.615,69.672a52.526,52.526,0,0,0,1.627,7.572c2.815-.426,35.323-7.593,35.323-7.593Z" transform="translate(19405.504 -1591.135)" fill="#19d0c1" style="mix-blend-mode: normal;isolation: isolate"/>
    </g>
    <rect id="Rectangle_4979" data-name="Rectangle 4979" width="630" height="120" transform="translate(181 307)" fill="none"/>
  </g>
</svg>
