<svg xmlns="http://www.w3.org/2000/svg" xmlns:xlink="http://www.w3.org/1999/xlink" width="628.998" height="120" viewBox="0 0 628.998 120">
  <defs>
    <clipPath id="clip-path">
      <rect id="Rectangle_6932" data-name="Rectangle 6932" width="472.363" height="66.4" transform="translate(0 0)" fill="none"/>
    </clipPath>
    <linearGradient id="linear-gradient" x1="1.244" y1="0.658" x2="0.262" gradientUnits="objectBoundingBox">
      <stop offset="0" stop-color="#00c8b8"/>
      <stop offset="0.281" stop-color="#13cfc0"/>
      <stop offset="0.424" stop-color="#1cd3c4"/>
      <stop offset="0.626" stop-color="#2ad8c9"/>
      <stop offset="0.733" stop-color="#33dbcd"/>
      <stop offset="0.807" stop-color="#44e1d4"/>
      <stop offset="0.86" stop-color="#50e5d9"/>
      <stop offset="1" stop-color="#4af5a0"/>
    </linearGradient>
    <linearGradient id="linear-gradient-2" x1="1" y1="0.954" x2="0.516" gradientUnits="objectBoundingBox">
      <stop offset="0" stop-color="#00c8b8"/>
      <stop offset="0.399" stop-color="#29d7c9"/>
      <stop offset="0.714" stop-color="#49e2d6"/>
      <stop offset="1" stop-color="#66ede2"/>
    </linearGradient>
  </defs>
  <g id="smartQ_LAS_logo" data-name="smartQ LAS logo" transform="translate(-283.501 -386)">
    <g id="Group_11941" data-name="Group 11941" transform="translate(440.136 418)">
      <g id="Group_11940" data-name="Group 11940" clip-path="url(#clip-path)">
        <path id="Path_7411" data-name="Path 7411" d="M161.1,14.2a31.717,31.717,0,0,0-9.6-1.5,24.333,24.333,0,0,0-8.7,1.2,20.38,20.38,0,0,0-5.7,3.3,9.818,9.818,0,0,0-3.3,4.5,14.133,14.133,0,0,0-1.2,5.1H145a3.583,3.583,0,0,1,.9-2.4,5.371,5.371,0,0,1,2.1-1.5,7.511,7.511,0,0,1,3-.6,7.369,7.369,0,0,1,4.5,1.5,5.443,5.443,0,0,1,1.8,4.2v3.6H147c-5,0-9,1.2-11.7,3.6a12.478,12.478,0,0,0-4.2,9.6,12.666,12.666,0,0,0,4.2,9.9,16.477,16.477,0,0,0,10.4,3.7,15.121,15.121,0,0,0,5.7-.9,9.656,9.656,0,0,0,3.9-2.4,18.211,18.211,0,0,0,2.1-3h.6v5.4h12.4V28c0-3.6-.6-6.6-2.4-9a15.667,15.667,0,0,0-6.9-4.8m-3.6,29.1a5.07,5.07,0,0,1-.9,3,9.359,9.359,0,0,1-2.7,2.1c-.8.5-2.1.5-3.6.9a6.894,6.894,0,0,1-4.2-1.2,4.46,4.46,0,0,1-1.8-3.9,4.035,4.035,0,0,1,1.5-3.6,7.627,7.627,0,0,1,4.8-1.5h6.9ZM107.6,12.9a14.621,14.621,0,0,0-6.7,1.2,17.431,17.431,0,0,0-4.5,3.3A9.21,9.21,0,0,0,94,21.3h-.6a11.083,11.083,0,0,0-2.1-4.2,13.439,13.439,0,0,0-3.9-3,11.41,11.41,0,0,0-5.7-1.2,13.9,13.9,0,0,0-6.3,1.2,10.814,10.814,0,0,0-3.9,3.3A10.142,10.142,0,0,0,69.7,21h-.6V13.5H56.2l-.1,44.3H69.3V31.7a10.018,10.018,0,0,1,.9-4.5,7.086,7.086,0,0,1,2.4-2.7,6.506,6.506,0,0,1,6.6,0,4.654,4.654,0,0,1,2.4,2.4,9.183,9.183,0,0,1,.9,4.5V57.8H95.1V31.7a10.018,10.018,0,0,1,.9-4.5,7.086,7.086,0,0,1,2.4-2.7,6.506,6.506,0,0,1,6.6,0,6.9,6.9,0,0,1,2.4,2.4,10.018,10.018,0,0,1,.9,4.5V57.8h13.2V27.1a14.7,14.7,0,0,0-3.6-10.3c-2.5-2.7-5.8-3.9-10.3-3.9M13.4,41.4h-.2c0,.133.02.266.033.4H13.4ZM38.5,27a29.864,29.864,0,0,0-7.8-2.7l-8.1-1.8c-2.4-.6-4.5-1.2-5.7-2.1a3.917,3.917,0,0,1-2.1-3.6,5.4,5.4,0,0,1,2.1-4.5,9.843,9.843,0,0,1,6.3-1.8,11.424,11.424,0,0,1,4.8.9,8.168,8.168,0,0,1,3,2.4,8.984,8.984,0,0,1,1.2,3H44.8a16.289,16.289,0,0,0-2.7-8.1,14.533,14.533,0,0,0-7.2-6.3A29.293,29.293,0,0,0,22.8,0,27.606,27.606,0,0,0,11.4,2.1a15.734,15.734,0,0,0-7.8,6A15.93,15.93,0,0,0,.9,17.4c0,3,.3,5.7,1.8,7.8a21.841,21.841,0,0,0,5.4,5.1,20.192,20.192,0,0,0,7.8,3L24,35.1a21.3,21.3,0,0,1,6.3,2.4,4.868,4.868,0,0,1,2.1,4.2,6.042,6.042,0,0,1-.9,3.3,4.946,4.946,0,0,1-3,2.4,11.969,11.969,0,0,1-5.1.9,17.757,17.757,0,0,1-4.2-.6,9.384,9.384,0,0,1-3-1.5,7.021,7.021,0,0,1-2.1-2.1,5.018,5.018,0,0,1-.867-2.3H0a16.123,16.123,0,0,0,1.5,6.3,17.585,17.585,0,0,0,4.2,5.4,17.807,17.807,0,0,0,6.9,3.9,34.457,34.457,0,0,0,10.3,1.5,31.925,31.925,0,0,0,12.9-2.4,18.2,18.2,0,0,0,7.8-6.3,17.13,17.13,0,0,0,2.7-9.6c0-3.4-.6-6.4-2.1-8.5A15.582,15.582,0,0,0,38.5,27M206.9,12.9c-2.1,0-4.2.3-5.4,1.2a15.7,15.7,0,0,0-3.3,3,12.206,12.206,0,0,0-1.8,3.3h-.6V13.5H182.5l.1,44.2h13.5V33.6a14.019,14.019,0,0,1,.9-5.1,11.539,11.539,0,0,1,3.3-3.3A10.736,10.736,0,0,1,206,24h2.7a4.435,4.435,0,0,1,2.1.3V13.2a13.032,13.032,0,0,0-1.5-.3ZM299.2,7a29.272,29.272,0,0,0-27,0,21.009,21.009,0,0,0-8.7,9c-2.1,3.9-3,8.4-3,13.8v6.3c0,5.3.9,9.9,3,13.8a20.448,20.448,0,0,0,8.7,9,28.1,28.1,0,0,0,13.5,3.3,17.162,17.162,0,0,0,3.9-.3l3.6-.9,3.6,5.4,13.2-.1L303.1,56a21.975,21.975,0,0,0,5.7-8.5,27.6,27.6,0,0,0,2.1-11.4V29.8c0-5.3-.9-9.9-3-13.8a22.21,22.21,0,0,0-8.7-9m-2,29.2a26.91,26.91,0,0,1-.6,5.4,17.348,17.348,0,0,1-1.5,4.2c-.3-.3-.6-.9-.9-1.2s-.6-.9-.9-1.2H281.6l5.7,8.5c-.3,0-.5.3-.9.3h-1.2a9.52,9.52,0,0,1-6-1.8,12.607,12.607,0,0,1-3.9-5.4,34.435,34.435,0,0,1-2.1-8.8V29.3a22.914,22.914,0,0,1,1.5-8.1,11.723,11.723,0,0,1,4.2-5.1,11.925,11.925,0,0,1,12.6,0,10.242,10.242,0,0,1,4.2,5.1,20.54,20.54,0,0,1,1.5,8.1ZM242.6,48c-2.1,0-3.5-.3-4.5-1.2a5.444,5.444,0,0,1-1.5-4.2V23.7h9.6V13.8h-9.6V3H224V14.4h-6.9v9.9H224v21c0,3,.3,5.4,1.5,7.5a8.93,8.93,0,0,0,5.1,4.2c2.1.9,5.1,1.2,9,1.2,1.8,0,3.3-.3,4.5-.3s2.1-.3,2.7-.3V48h-4.2ZM462.3,29.352l-6.365-2.533c-4.518-1.78-7.735-2.875-7.735-5.681,0-2.738,2.327-4.244,6.092-4.244,3.97,0,7.119,1.369,10.473,3.9l6.092-7.667a23.7,23.7,0,0,0-16.565-6.708c-10.815,0-18.482,6.845-18.482,15.4,0,7.393,5,11.842,10.336,13.964l6.5,2.739c4.381,1.847,7.188,2.806,7.188,5.75,0,2.738-2.122,4.449-6.64,4.449-4.039,0-8.762-2.122-12.39-5.2l-6.914,8.419a28.5,28.5,0,0,0,19.03,7.324c12.321,0,19.44-7.461,19.44-15.949,0-7.187-3.765-11.431-10.063-13.964M401.316,7.379,385.505,58.307h12.458l2.943-11.7h15.059l2.943,11.7h12.869L415.965,7.379Zm1.917,29.776,1.1-4.312c1.3-5.066,2.67-11.021,3.9-16.36h.274c1.369,5.2,2.67,11.294,4.039,16.36l1.094,4.312ZM363.946,7.379H351.693V58.307h32.035V48.039H363.946Z" fill="#00c8b8"/>
      </g>
    </g>
    <g id="Group_11942" data-name="Group 11942" transform="translate(-165.364 -1)">
      <path id="Path_7412" data-name="Path 7412" d="M111.427,84.511a39.583,39.583,0,1,1,6.207-14.094L136.4,79.06a60.117,60.117,0,1,0-6.412,14.247Z" transform="translate(448.203 385.164)" fill="url(#linear-gradient)"/>
      <path id="Union_22" data-name="Union 22" d="M62.285,43.421C52.24,39.573,40.653,31.064,37.611,15.572H0L4.172,0H88.128v15.57H79.293V46.446s-.324.018-.914.018A46.839,46.839,0,0,1,62.285,43.421Z" transform="translate(448.865 440.42)" fill="url(#linear-gradient-2)"/>
      <path id="Path_3669" d="M60.045,73.6,56.639,69.65l-37.024.021a50.4,50.4,0,0,0,4.3,14.938Z" transform="translate(448.213 386.361)" fill="#0cd0c0" style="mix-blend-mode: normal;isolation: isolate"/>
    </g>
  </g>
</svg>
